<svg width="40" height="40" viewBox="0 0 40 40" fill="none" xmlns="http://www.w3.org/2000/svg">
<path d="M31.5898 6.53027C31.5898 5.72946 30.9405 5.08008 30.1396 5.08008H9.87012C9.06931 5.08008 8.41992 5.72946 8.41992 6.53027V33.46C8.41992 34.2608 9.0693 34.9102 9.87012 34.9102H30.1396C30.9405 34.9102 31.5898 34.2608 31.5898 33.46V6.53027ZM35.0898 33.46C35.0898 36.1938 32.8735 38.4102 30.1396 38.4102H9.87012C7.13631 38.4102 4.91992 36.1938 4.91992 33.46V6.53027C4.91992 3.79647 7.13631 1.58008 9.87012 1.58008H30.1396C32.8735 1.58008 35.0898 3.79646 35.0898 6.53027V33.46Z" fill="#1E1E1E"/>
<path d="M16.5 23.5831C17.4664 23.5831 18.2498 24.3667 18.25 25.3331C18.25 26.2996 17.4665 27.0831 16.5 27.0831H13.3301C12.3636 27.0831 11.5801 26.2996 11.5801 25.3331C11.5803 24.3667 12.3637 23.5831 13.3301 23.5831H16.5ZM18 16.9171C18.9665 16.9171 19.75 17.7006 19.75 18.6671C19.7498 19.6334 18.9664 20.4171 18 20.4171H13.3301C12.3637 20.4171 11.5803 19.6334 11.5801 18.6671C11.5801 17.7006 12.3636 16.9171 13.3301 16.9171H18ZM26.6631 10.2501C27.6296 10.2501 28.4131 11.0336 28.4131 12.0001C28.4131 12.9666 27.6296 13.7501 26.6631 13.7501H13.3301C12.3636 13.7501 11.5801 12.9666 11.5801 12.0001C11.5801 11.0336 12.3636 10.2501 13.3301 10.2501H26.6631Z" fill="#1E1E1E"/>
<path d="M24.75 28.0001V32.2032L25.2354 31.9679L26 31.5958L26.7646 31.9679L27.25 32.2032V28.0001H30.75V37.797L26 35.4864L21.25 37.797V28.0001H24.75Z" fill="#1457A2"/>
<path d="M29.25 24.0001C29.25 22.2052 27.7949 20.7501 26 20.7501C24.2051 20.7501 22.75 22.2052 22.75 24.0001C22.75 25.795 24.2051 27.2501 26 27.2501C27.7949 27.2501 29.25 25.795 29.25 24.0001ZM32.75 24.0001C32.75 27.728 29.7279 30.7501 26 30.7501C22.2721 30.7501 19.25 27.728 19.25 24.0001C19.25 20.2722 22.2721 17.2501 26 17.2501C29.7279 17.2501 32.75 20.2722 32.75 24.0001Z" fill="#1457A2"/>
</svg>
