<svg width="96" height="96" viewBox="0 0 96 96" fill="none" xmlns="http://www.w3.org/2000/svg">
<path d="M75.8157 15.6725C75.8157 13.7505 74.2572 12.192 72.3352 12.192H23.6883C21.7664 12.192 20.2079 13.7505 20.2079 15.6725V80.3037C20.2079 82.2257 21.7664 83.7842 23.6883 83.7842H72.3352C74.2572 83.7842 75.8157 82.2257 75.8157 80.3037V15.6725ZM84.2157 80.3037C84.2157 86.8649 78.8964 92.1842 72.3352 92.1842H23.6883C17.1272 92.1842 11.8079 86.8649 11.8079 80.3037V15.6725C11.8079 9.11132 17.1272 3.79199 23.6883 3.79199H72.3352C78.8963 3.79199 84.2157 9.11131 84.2157 15.6725V80.3037Z" fill="#1E1E1E"/>
<path d="M39.6 56.5992C41.9194 56.5992 43.7996 58.48 43.8001 60.7992C43.8001 63.1188 41.9196 64.9992 39.6 64.9992H31.9922C29.6726 64.9992 27.7922 63.1188 27.7922 60.7992C27.7927 58.48 29.6729 56.5992 31.9922 56.5992H39.6ZM43.2001 40.6008C45.5196 40.6008 47.4001 42.4812 47.4001 44.8008C47.3996 47.12 45.5194 49.0008 43.2001 49.0008H31.9922C29.6729 49.0008 27.7927 47.12 27.7922 44.8008C27.7922 42.4812 29.6726 40.6008 31.9922 40.6008H43.2001ZM63.9915 24.6C66.3111 24.6 68.1915 26.4804 68.1915 28.8C68.1915 31.1196 66.3111 33 63.9915 33H31.9922C29.6726 33 27.7922 31.1196 27.7922 28.8C27.7922 26.4804 29.6726 24.6 31.9922 24.6H63.9915Z" fill="#1E1E1E"/>
<path d="M59.4001 67.2V77.2875L60.5649 76.7227L62.4001 75.8297L64.2352 76.7227L65.4001 77.2875V67.2H73.8001V90.7125L62.4001 85.1672L51.0001 90.7125V67.2H59.4001Z" fill="#1457A2"/>
<path d="M70.2001 57.6C70.2001 53.2922 66.7079 49.8 62.4001 49.8C58.0922 49.8 54.6001 53.2922 54.6001 57.6C54.6001 61.9078 58.0922 65.4 62.4001 65.4C66.7079 65.4 70.2001 61.9078 70.2001 57.6ZM78.6001 57.6C78.6001 66.547 71.3471 73.8 62.4001 73.8C53.453 73.8 46.2001 66.547 46.2001 57.6C46.2001 48.653 53.453 41.4 62.4001 41.4C71.3471 41.4 78.6001 48.653 78.6001 57.6Z" fill="#1457A2"/>
</svg>
