<svg width="40" height="40" viewBox="0 0 40 40" fill="none" xmlns="http://www.w3.org/2000/svg">
<g clip-path="url(#clip0_7_72)">
<path d="M36.5835 9.99976C36.5833 9.12545 35.8739 8.41675 34.9995 8.41675H4.99951C4.12532 8.41692 3.41668 9.12556 3.4165 9.99976V29.9998C3.4165 30.8741 4.12521 31.5836 4.99951 31.5837H34.9995C35.874 31.5837 36.5835 30.8742 36.5835 29.9998V9.99976ZM40.0835 29.9998C40.0835 32.8072 37.807 35.0837 34.9995 35.0837H4.99951C2.19221 35.0836 -0.0834961 32.8071 -0.0834961 29.9998V9.99976C-0.0833202 7.19257 2.19232 4.91692 4.99951 4.91675H34.9995C37.8069 4.91675 40.0833 7.19246 40.0835 9.99976V29.9998Z" fill="#1E1E1E"/>
<path d="M33.9998 15.2501C34.9663 15.2501 35.7498 16.0336 35.7498 17.0001C35.7498 17.9666 34.9663 18.7501 33.9998 18.7501L5.99984 18.7501C5.03334 18.7501 4.24984 17.9666 4.24984 17.0001C4.24984 16.0336 5.03334 15.2501 5.99984 15.2501L33.9998 15.2501Z" fill="#1457A2"/>
<path d="M28.9998 26.0001C28.9998 28.2092 27.209 30.0001 24.9998 30.0001C22.7907 30.0001 20.9998 28.2092 20.9998 26.0001C20.9998 23.7909 22.7907 22.0001 24.9998 22.0001C27.209 22.0001 28.9998 23.7909 28.9998 26.0001Z" fill="#1E1E1E"/>
<path d="M34.9998 26.0001C34.9998 28.2092 33.209 30.0001 30.9998 30.0001C28.7907 30.0001 26.9998 28.2092 26.9998 26.0001C26.9998 23.7909 28.7907 22.0001 30.9998 22.0001C33.209 22.0001 34.9998 23.7909 34.9998 26.0001Z" fill="#1457A2"/>
</g>
<defs>
<clipPath id="clip0_7_72">
<rect width="40" height="40" fill="white"/>
</clipPath>
</defs>
</svg>
