<svg width="96" height="96" viewBox="0 0 96 96" fill="none" xmlns="http://www.w3.org/2000/svg">
<g clip-path="url(#clip0_7_72)">
<path d="M87.8006 23.9993C87.8002 21.9009 86.0974 20.2 83.999 20.2H11.999C9.90096 20.2005 8.20023 21.9012 8.1998 23.9993V71.9993C8.1998 74.0977 9.9007 75.8004 11.999 75.8008H83.999C86.0977 75.8008 87.8006 74.098 87.8006 71.9993V23.9993ZM96.2006 71.9993C96.2006 78.7371 90.7369 84.2008 83.999 84.2008H11.999C5.26151 84.2004 -0.200195 78.7369 -0.200195 71.9993V23.9993C-0.199773 17.262 5.26177 11.8005 11.999 11.8H83.999C90.7366 11.8 96.2002 17.2618 96.2006 23.9993V71.9993Z" fill="#1E1E1E"/>
<path d="M81.5998 36.6001C83.9194 36.6001 85.7998 38.4805 85.7998 40.8001C85.7998 43.1196 83.9194 45.0001 81.5998 45.0001L14.3998 45C12.0802 45 10.1998 43.1196 10.1998 40.8C10.1998 38.4805 12.0802 36.6 14.3998 36.6L81.5998 36.6001Z" fill="#1457A2"/>
<path d="M69.5998 62.4C69.5998 67.702 65.3017 72 59.9998 72C54.6979 72 50.3998 67.702 50.3998 62.4C50.3998 57.0981 54.6979 52.8 59.9998 52.8C65.3017 52.8 69.5998 57.0981 69.5998 62.4Z" fill="#1E1E1E"/>
<path d="M83.9998 62.4C83.9998 67.702 79.7017 72 74.3998 72C69.0979 72 64.7998 67.702 64.7998 62.4C64.7998 57.0981 69.0979 52.8 74.3998 52.8C79.7017 52.8 83.9998 57.0981 83.9998 62.4Z" fill="#1457A2"/>
</g>
<defs>
<clipPath id="clip0_7_72">
<rect width="96" height="96" fill="white"/>
</clipPath>
</defs>
</svg>
