<svg width="96" height="96" viewBox="0 0 96 96" fill="none" xmlns="http://www.w3.org/2000/svg">
<path d="M63.9998 63.8C66.3194 63.8 68.1998 65.6805 68.1998 68C68.1998 70.3196 66.3194 72.2 63.9998 72.2H32.0006C29.681 72.2 27.8006 70.3196 27.8006 68C27.8006 65.6805 29.681 63.8 32.0006 63.8H63.9998ZM63.9998 47.7993C66.3191 47.7993 68.1994 49.68 68.1998 51.9993C68.1998 54.3189 66.3194 56.1993 63.9998 56.1993H32.0006C29.681 56.1993 27.8006 54.3189 27.8006 51.9993C27.801 49.68 29.6812 47.7993 32.0006 47.7993H63.9998ZM39.9998 31.8008C42.3194 31.8008 44.1998 33.6812 44.1998 36.0008C44.1994 38.3201 42.3191 40.2008 39.9998 40.2008H32.0006C29.6812 40.2008 27.801 38.3201 27.8006 36.0008C27.8006 33.6812 29.681 31.8008 32.0006 31.8008H39.9998ZM60.2006 27.8H69.8615L60.2006 18.1391V27.8ZM84.2006 80C84.2006 83.2357 82.9143 86.3394 80.6264 88.6274C78.3385 90.9151 75.2345 92.1993 71.999 92.1993H23.999C20.764 92.1991 17.6617 90.9147 15.374 88.6274C13.0861 86.3394 11.7998 83.2357 11.7998 80V15.9993C11.8 12.7639 13.0863 9.66203 15.374 7.37427C17.6618 5.08651 20.7637 3.80026 23.999 3.80005H56.0006L56.4154 3.82114C57.3767 3.91672 58.2811 4.34145 58.9701 5.03052L82.9701 29.0305C83.7575 29.8181 84.2006 30.8863 84.2006 32V80ZM20.1998 80C20.1998 81.0077 20.6007 81.9734 21.3131 82.686C22.0255 83.3984 22.9915 83.7991 23.999 83.7993H71.999C73.0068 83.7993 73.9747 83.3986 74.6873 82.686C75.3995 81.9734 75.8006 81.0075 75.8006 80V36.2H56.0006C53.681 36.2 51.8006 34.3196 51.8006 32V12.2H23.999C22.9915 12.2003 22.0255 12.6009 21.3131 13.3133C20.6006 14.0258 20.2 14.9917 20.1998 15.9993V80Z" fill="#1E1E1E"/>
<path d="M39.9998 31.8008C42.3194 31.8008 44.1998 33.6812 44.1998 36.0008C44.1994 38.3201 42.3191 40.2008 39.9998 40.2008H32.0006C29.6812 40.2008 27.801 38.3201 27.8006 36.0008C27.8006 33.6812 29.681 31.8008 32.0006 31.8008H39.9998Z" fill="#1457A2"/>
</svg>
