<svg width="40" height="40" viewBox="0 0 40 40" fill="none" xmlns="http://www.w3.org/2000/svg">
<path d="M26.6665 26.5833C27.633 26.5833 28.4165 27.3668 28.4165 28.3333C28.4165 29.2997 27.633 30.0833 26.6665 30.0833H13.3335C12.367 30.0833 11.5835 29.2997 11.5835 28.3333C11.5835 27.3668 12.367 26.5833 13.3335 26.5833H26.6665ZM26.6665 19.9163C27.6329 19.9163 28.4163 20.6999 28.4165 21.6663C28.4165 22.6328 27.633 23.4163 26.6665 23.4163H13.3335C12.367 23.4163 11.5835 22.6328 11.5835 21.6663C11.5837 20.6999 12.3671 19.9163 13.3335 19.9163H26.6665ZM16.6665 13.2502C17.633 13.2502 18.4165 14.0337 18.4165 15.0002C18.4163 15.9666 17.6329 16.7502 16.6665 16.7502H13.3335C12.3671 16.7502 11.5837 15.9666 11.5835 15.0002C11.5835 14.0337 12.367 13.2502 13.3335 13.2502H16.6665ZM25.0835 11.5833H29.1089L25.0835 7.55786V11.5833ZM35.0835 33.3333C35.0835 34.6814 34.5475 35.9747 33.5942 36.928C32.6409 37.8812 31.3476 38.4163 29.9995 38.4163H9.99951C8.6516 38.4162 7.35896 37.881 6.40576 36.928C5.45245 35.9747 4.9165 34.6814 4.9165 33.3333V6.66626C4.91659 5.31819 5.45253 4.02574 6.40576 3.07251C7.359 2.11928 8.65145 1.58334 9.99951 1.58325H23.3335L23.5063 1.59204C23.9069 1.63186 24.2837 1.80884 24.5708 2.09595L34.5708 12.0959C34.8989 12.4241 35.0835 12.8692 35.0835 13.3333V33.3333ZM8.4165 33.3333C8.4165 33.7531 8.58354 34.1555 8.88037 34.4524C9.17723 34.7492 9.5797 34.9162 9.99951 34.9163H29.9995C30.4194 34.9163 30.8227 34.7493 31.1196 34.4524C31.4164 34.1555 31.5835 33.753 31.5835 33.3333V15.0833H23.3335C22.367 15.0833 21.5835 14.2998 21.5835 13.3333V5.08325H9.99951C9.5797 5.08334 9.17723 5.25026 8.88037 5.54712C8.58352 5.84397 8.41659 6.24645 8.4165 6.66626V33.3333Z" fill="#1E1E1E"/>
<path d="M16.6665 13.2502C17.633 13.2502 18.4165 14.0337 18.4165 15.0002C18.4163 15.9666 17.6329 16.7502 16.6665 16.7502H13.3335C12.3671 16.7502 11.5837 15.9666 11.5835 15.0002C11.5835 14.0337 12.367 13.2502 13.3335 13.2502H16.6665Z" fill="#1457A2"/>
</svg>
