<svg width="40" height="40" viewBox="0 0 40 40" fill="none" xmlns="http://www.w3.org/2000/svg">
<path d="M13.8888 35C11.4165 35 9.31708 34.1365 7.59042 32.4096C5.86347 30.6829 5 28.5835 5 26.1113C5 25.0557 5.18056 24.0418 5.54167 23.0696C5.90278 22.0974 6.40736 21.2085 7.05542 20.4029L13.25 12.9721L9.26375 5H30.7638L26.7779 12.9721L32.9446 20.4029C33.6113 21.2085 34.1204 22.0974 34.4721 23.0696C34.824 24.0418 35.0093 25.0557 35.0279 26.1113C35.0279 28.5835 34.1621 30.6829 32.4304 32.4096C30.699 34.1365 28.6018 35 26.1388 35H13.8888ZM15.7638 11.8054H24.2362L26.2638 7.77792H13.7638L15.7638 11.8054ZM13.8888 32.2221H26.1112C27.8057 32.2221 29.2478 31.6272 30.4375 30.4375C31.6272 29.2478 32.2221 27.8057 32.2221 26.1113C32.2221 25.389 32.0994 24.6922 31.8542 24.0208C31.6089 23.3494 31.2593 22.7453 30.8054 22.2083L24.4583 14.5833H15.5554L9.22208 22.1946C8.76847 22.7315 8.41431 23.3379 8.15958 24.0138C7.90514 24.6899 7.77792 25.389 7.77792 26.1113C7.77792 27.8057 8.37278 29.2478 9.5625 30.4375C10.7522 31.6272 12.1943 32.2221 13.8888 32.2221Z" fill="#1F1F1F"/>
<path d="M24 24C24 26.2091 22.2091 28 20 28C17.7909 28 16 26.2091 16 24C16 21.7909 17.7909 20 20 20C22.2091 20 24 21.7909 24 24Z" fill="#1457A2"/>
</svg>
