<svg width="96" height="96" viewBox="0 0 96 96" fill="none" xmlns="http://www.w3.org/2000/svg">
<path d="M33.333 84C27.3997 84 22.361 81.9277 18.217 77.783C14.0723 73.639 12 68.6003 12 62.667C12 60.1337 12.4333 57.7003 13.3 55.367C14.1667 53.0337 15.3777 50.9003 16.933 48.967L31.8 31.133L22.233 12H73.833L64.267 31.133L79.067 48.967C80.667 50.9003 81.889 53.0337 82.733 55.367C83.5777 57.7003 84.0223 60.1337 84.067 62.667C84.067 68.6003 81.989 73.639 77.833 77.783C73.6777 81.9277 68.6443 84 62.733 84H33.333ZM37.833 28.333H58.167L63.033 18.667H33.033L37.833 28.333ZM33.333 77.333H62.667C66.7337 77.333 70.1947 75.9053 73.05 73.05C75.9053 70.1947 77.333 66.7337 77.333 62.667C77.333 60.9337 77.0387 59.2613 76.45 57.65C75.8613 56.0387 75.0223 54.5887 73.933 53.3L58.7 35H37.333L22.133 53.267C21.0443 54.5557 20.1943 56.011 19.583 57.633C18.9723 59.2557 18.667 60.9337 18.667 62.667C18.667 66.7337 20.0947 70.1947 22.95 73.05C25.8053 75.9053 29.2663 77.333 33.333 77.333Z" fill="#1F1F1F"/>
<path d="M57.6 57.6C57.6 62.9019 53.3019 67.2 48 67.2C42.6981 67.2 38.4 62.9019 38.4 57.6C38.4 52.2981 42.6981 48 48 48C53.3019 48 57.6 52.2981 57.6 57.6Z" fill="#1457A2"/>
</svg>
