<svg width="96" height="96" viewBox="0 0 96 96" fill="none" xmlns="http://www.w3.org/2000/svg">
<path d="M75.8157 15.6727C75.8157 13.7508 74.2572 12.1922 72.3352 12.1922H23.6883C21.7664 12.1922 20.2079 13.7508 20.2079 15.6727V80.304C20.2079 82.2259 21.7664 83.7844 23.6883 83.7844H72.3352C74.2572 83.7844 75.8157 82.2259 75.8157 80.304V15.6727ZM84.2157 80.304C84.2157 86.8651 78.8964 92.1844 72.3352 92.1844H23.6883C17.1272 92.1844 11.8079 86.8651 11.8079 80.304V15.6727C11.8079 9.11157 17.1272 3.79224 23.6883 3.79224H72.3352C78.8963 3.79224 84.2157 9.11156 84.2157 15.6727V80.304Z" fill="#1E1E1E"/>
<path d="M40.8077 61.4829C38.4787 61.4829 37.2115 60.3698 36.4922 57.6812L32.211 41.7381C31.9713 40.8305 31.8 39.803 31.8 39.1522C31.8 37.0973 33.1187 35.9157 35.3791 35.9157C37.28 35.9157 38.4102 36.9603 38.8383 39.1351L41.3728 51.9616H41.5098L44.6094 38.7926C45.0717 36.8233 46.1506 35.9157 48.0001 35.9157C49.781 35.9157 50.9455 36.9089 51.3907 38.7926L54.4903 51.9616H54.6273L57.1618 39.1351C57.5899 36.9603 58.7201 35.9157 60.621 35.9157C62.8814 35.9157 64.2001 37.0973 64.2001 39.1522C64.2001 39.7859 64.0459 40.7962 63.7891 41.7381L59.4907 57.7326C58.7715 60.3527 57.5043 61.4829 55.2438 61.4829C52.8635 61.4829 51.5791 60.3698 50.877 57.6983L48.0686 46.9098H47.9316L45.1231 57.6983C44.4552 60.3013 43.1024 61.4829 40.8077 61.4829Z" fill="#1457A2"/>
<path d="M62.4001 41.4001C64.7196 41.4001 66.6001 43.2805 66.6001 45.6001C66.6001 47.9197 64.7196 49.8001 62.4001 49.8001L33.6 49.8001C31.2805 49.8001 29.4 47.9196 29.4 45.6001C29.4 43.2805 31.2805 41.4001 33.6 41.4001L62.4001 41.4001Z" fill="#1457A2"/>
</svg>
