<svg width="40" height="40" viewBox="0 0 40 40" fill="none" xmlns="http://www.w3.org/2000/svg">
<path d="M31.5898 6.53027C31.5898 5.72946 30.9405 5.08008 30.1396 5.08008H9.87012C9.06931 5.08008 8.41992 5.72946 8.41992 6.53027V33.46C8.41992 34.2608 9.0693 34.9102 9.87012 34.9102H30.1396C30.9405 34.9102 31.5898 34.2608 31.5898 33.46V6.53027ZM35.0898 33.46C35.0898 36.1938 32.8735 38.4102 30.1396 38.4102H9.87012C7.13631 38.4102 4.91992 36.1938 4.91992 33.46V6.53027C4.91992 3.79647 7.13631 1.58008 9.87012 1.58008H30.1396C32.8735 1.58008 35.0898 3.79646 35.0898 6.53027V33.46Z" fill="#1E1E1E"/>
<path d="M17.0032 25.6179C16.0328 25.6179 15.5048 25.1541 15.2051 24.0338L13.4212 17.3908C13.3214 17.0127 13.25 16.5846 13.25 16.3134C13.25 15.4572 13.7994 14.9648 14.7413 14.9648C15.5333 14.9648 16.0042 15.4001 16.1826 16.3063L17.2386 21.6506H17.2957L18.5872 16.1636C18.7799 15.343 19.2294 14.9648 20 14.9648C20.7421 14.9648 21.2273 15.3787 21.4128 16.1636L22.7043 21.6506H22.7614L23.8174 16.3063C23.9958 15.4001 24.4667 14.9648 25.2587 14.9648C26.2006 14.9648 26.75 15.4572 26.75 16.3134C26.75 16.5774 26.6858 16.9984 26.5788 17.3908L24.7878 24.0552C24.4881 25.1469 23.9601 25.6179 23.0182 25.6179C22.0264 25.6179 21.4913 25.1541 21.1987 24.041L20.0285 19.5457H19.9715L18.8013 24.041C18.523 25.1255 17.9593 25.6179 17.0032 25.6179Z" fill="#1457A2"/>
<path d="M26 17.25C26.9665 17.25 27.75 18.0335 27.75 19C27.75 19.9665 26.9665 20.75 26 20.75L14 20.75C13.0335 20.75 12.25 19.9665 12.25 19C12.25 18.0335 13.0335 17.25 14 17.25L26 17.25Z" fill="#1457A2"/>
</svg>
